<svg id="visual" viewBox="0 0 6200 5800" width="6200" height="5800" xmlns="http://www.w3.org/2000/svg" xmlns:xlink="http://www.w3.org/1999/xlink" version="1.1"><rect x="0" y="0" width="6200" height="5800" fill="#FFFFFF"></rect><defs><linearGradient id="grad1_0" x1="6.5%" y1="0%" x2="100%" y2="100%"><stop offset="28.620689655172416%" stop-color="#f26250" stop-opacity="1"></stop><stop offset="71.37931034482759%" stop-color="#f26250" stop-opacity="1"></stop></linearGradient></defs><defs><linearGradient id="grad1_1" x1="6.5%" y1="0%" x2="100%" y2="100%"><stop offset="28.620689655172416%" stop-color="#f26250" stop-opacity="1"></stop><stop offset="71.37931034482759%" stop-color="#ffffff" stop-opacity="1"></stop></linearGradient></defs><defs><linearGradient id="grad2_0" x1="0%" y1="0%" x2="93.5%" y2="100%"><stop offset="28.620689655172416%" stop-color="#f26250" stop-opacity="1"></stop><stop offset="71.37931034482759%" stop-color="#f26250" stop-opacity="1"></stop></linearGradient></defs><defs><linearGradient id="grad2_1" x1="0%" y1="0%" x2="93.5%" y2="100%"><stop offset="28.620689655172416%" stop-color="#ffffff" stop-opacity="1"></stop><stop offset="71.37931034482759%" stop-color="#f26250" stop-opacity="1"></stop></linearGradient></defs><g transform="translate(6200, 0)"><path d="M0 2971.5C-329.9 2979.4 -659.8 2987.3 -918.2 2826.1C-1176.7 2664.8 -1363.6 2334.5 -1498.9 2063C-1634.1 1791.5 -1717.6 1579 -1938.4 1408.3C-2159.2 1237.7 -2517.3 1109 -2712.4 881.3C-2907.5 653.6 -2939.5 326.8 -2971.5 0L0 0Z" fill="#ffb3a4"></path><path d="M0 1485.7C-165 1489.7 -329.9 1493.6 -459.1 1413C-588.3 1332.4 -681.8 1167.2 -749.4 1031.5C-817 895.8 -858.8 789.5 -969.2 704.2C-1079.6 618.9 -1258.7 554.5 -1356.2 440.7C-1453.7 326.8 -1469.7 163.4 -1485.7 0L0 0Z" fill="#f26250"></path></g><g transform="translate(0, 5800)"><path d="M0 -2971.5C240.1 -2706.4 480.2 -2441.3 767 -2360.5C1053.7 -2279.8 1387.1 -2383.4 1683.4 -2317C1979.8 -2250.7 2239.1 -2014.4 2404 -1746.6C2568.9 -1478.8 2639.3 -1179.5 2718.1 -883.2C2797 -586.8 2884.2 -293.4 2971.5 0L0 0Z" fill="#ffb3a4"></path><path d="M0 -1485.7C120.1 -1353.2 240.1 -1220.6 383.5 -1180.3C526.9 -1139.9 693.5 -1191.7 841.7 -1158.5C989.9 -1125.3 1119.6 -1007.2 1202 -873.3C1284.4 -739.4 1319.6 -589.8 1359.1 -441.6C1398.5 -293.4 1442.1 -146.7 1485.7 0L0 0Z" fill="#f26250"></path></g></svg>